<?xml version="1.0" encoding="utf-8"?>
<!-- Generator: Adobe Illustrator 16.0.0, SVG Export Plug-In . SVG Version: 6.00 Build 0)  -->
<!DOCTYPE svg PUBLIC "-//W3C//DTD SVG 1.1//EN" "http://www.w3.org/Graphics/SVG/1.1/DTD/svg11.dtd">
<svg version="1.1" id="Layer_1" xmlns="http://www.w3.org/2000/svg" xmlns:xlink="http://www.w3.org/1999/xlink" x="0px" y="0px"
	 width="1170px" height="969px" viewBox="0 0 1170 969" enable-background="new 0 0 1170 969" xml:space="preserve">
<g>
	
		<line fill="#333333" stroke="#B9539F" stroke-width="3.4743" stroke-miterlimit="10" x1="941.537" y1="648.68" x2="992.482" y2="658.536"/>
	
		<line fill="#333333" stroke="#B9539F" stroke-width="3.4743" stroke-miterlimit="10" x1="276.57" y1="47.32" x2="299.449" y2="93.896"/>
	
		<line fill="#333333" stroke="#B9539F" stroke-width="3.4743" stroke-miterlimit="10" x1="36.57" y1="433.32" x2="59.449" y2="479.896"/>
	
		<line fill="#333333" stroke="#B9539F" stroke-width="3.4743" stroke-miterlimit="10" x1="719.57" y1="813.32" x2="742.449" y2="859.896"/>
	
		<line fill="#333333" stroke="#B9539F" stroke-width="3.4743" stroke-miterlimit="10" x1="-11.702" y1="168.692" x2="26.309" y2="133.367"/>
	
		<line fill="#333333" stroke="#F6EB16" stroke-width="3.4743" stroke-miterlimit="10" x1="1078.957" y1="897.607" x2="1115.649" y2="934.299"/>
	
		<line fill="#333333" stroke="#F6EB16" stroke-width="3.4743" stroke-miterlimit="10" x1="69.63" y1="811.038" x2="108.977" y2="844.868"/>
	
		<line fill="#333333" stroke="#F6EB16" stroke-width="3.4743" stroke-miterlimit="10" x1="781.29" y1="73.649" x2="747.176" y2="112.749"/>
	
		<line fill="#333333" stroke="#F6EB16" stroke-width="3.4743" stroke-miterlimit="10" x1="22.013" y1="309.897" x2="70.454" y2="328.501"/>
	
		<line fill="#333333" stroke="#B9539F" stroke-width="3.4743" stroke-miterlimit="10" x1="540.55" y1="682.435" x2="492.057" y2="700.9"/>
	
		<line fill="#333333" stroke="#F6EB16" stroke-width="3.4743" stroke-miterlimit="10" x1="758.194" y1="669.372" x2="781.072" y2="715.946"/>
	
		<line fill="#333333" stroke="#B9539F" stroke-width="3.4743" stroke-miterlimit="10" x1="91.096" y1="92.615" x2="103.545" y2="142.99"/>
	
		<line fill="#333333" stroke="#B9539F" stroke-width="3.4743" stroke-miterlimit="10" x1="1013.096" y1="92.615" x2="1025.545" y2="142.99"/>
	
		<line fill="#333333" stroke="#B9539F" stroke-width="3.4743" stroke-miterlimit="10" x1="1112.096" y1="36.615" x2="1124.545" y2="86.99"/>
	
		<line fill="#333333" stroke="#B9539F" stroke-width="3.4743" stroke-miterlimit="10" x1="496.096" y1="322.615" x2="508.545" y2="372.99"/>
	
		<line fill="#333333" stroke="#F6EB16" stroke-width="3.4743" stroke-miterlimit="10" x1="81.007" y1="693.939" x2="36.068" y2="667.994"/>
	
		<line fill="#333333" stroke="#F6EB16" stroke-width="3.4743" stroke-miterlimit="10" x1="469.007" y1="109.939" x2="424.068" y2="83.994"/>
	
		<line fill="#333333" stroke="#F6EB16" stroke-width="3.4743" stroke-miterlimit="10" x1="1185.007" y1="197.939" x2="1140.068" y2="171.994"/>
	
		<line fill="#333333" stroke="#B9539F" stroke-width="3.4743" stroke-miterlimit="10" x1="303.759" y1="812.03" x2="272.283" y2="853.284"/>
	
		<line fill="#333333" stroke="#B9539F" stroke-width="3.4743" stroke-miterlimit="10" x1="235.042" y1="635.729" x2="209.097" y2="680.667"/>
	
		<line fill="#333333" stroke="#F6EB16" stroke-width="3.4743" stroke-miterlimit="10" x1="568.014" y1="511.897" x2="616.453" y2="530.501"/>
	
		<line fill="#333333" stroke="#B9539F" stroke-width="3.4743" stroke-miterlimit="10" x1="1085.57" y1="597.32" x2="1108.449" y2="643.896"/>
</g>
</svg>
