<?xml version="1.0" encoding="utf-8"?>
<!-- Generator: Adobe Illustrator 16.0.0, SVG Export Plug-In . SVG Version: 6.00 Build 0)  -->
<!DOCTYPE svg PUBLIC "-//W3C//DTD SVG 1.1//EN" "http://www.w3.org/Graphics/SVG/1.1/DTD/svg11.dtd">
<svg version="1.1" id="Layer_1" xmlns="http://www.w3.org/2000/svg" xmlns:xlink="http://www.w3.org/1999/xlink" x="0px" y="0px"
	 width="36.806px" height="37.126px" viewBox="0 0 36.806 37.126" enable-background="new 0 0 36.806 37.126" xml:space="preserve">
<g>
	<path fill="#FFFFFF" d="M18.395,3.927c4.722,0,5.28,0.02,7.145,0.103c1.723,0.08,2.659,0.364,3.282,0.605
		c0.825,0.322,1.416,0.708,2.034,1.328c0.615,0.617,1.001,1.206,1.325,2.029c0.242,0.622,0.527,1.56,0.604,3.284
		c0.088,1.865,0.104,2.422,0.104,7.143c0,4.724-0.016,5.282-0.104,7.146c-0.077,1.723-0.362,2.661-0.604,3.284
		c-0.324,0.825-0.71,1.414-1.325,2.034c-0.618,0.613-1.209,0.999-2.034,1.323c-0.623,0.238-1.56,0.525-3.282,0.604
		c-1.864,0.087-2.423,0.104-7.145,0.104c-4.724,0-5.28-0.017-7.146-0.104c-1.723-0.079-2.657-0.366-3.28-0.604
		c-0.825-0.324-1.414-0.71-2.031-1.323c-0.619-0.62-1.004-1.209-1.322-2.034c-0.246-0.623-0.533-1.562-0.61-3.284
		c-0.087-1.864-0.105-2.423-0.105-7.146c0-4.721,0.019-5.277,0.105-7.143c0.077-1.725,0.364-2.662,0.61-3.284
		C4.933,7.169,5.317,6.58,5.937,5.963c0.617-0.62,1.206-1.006,2.031-1.328c0.623-0.241,1.558-0.525,3.28-0.605
		C13.114,3.946,13.671,3.927,18.395,3.927 M18.395,0.738c-4.8,0-5.404,0.023-7.288,0.109c-1.881,0.089-3.17,0.384-4.292,0.821
		c-1.163,0.451-2.15,1.06-3.133,2.037C2.697,4.69,2.093,5.677,1.645,6.839c-0.441,1.127-0.737,2.408-0.825,4.294
		c-0.084,1.886-0.107,2.488-0.107,7.286c0,4.802,0.023,5.406,0.107,7.292c0.088,1.883,0.384,3.168,0.825,4.29
		c0.448,1.163,1.053,2.148,2.037,3.135c0.982,0.98,1.97,1.585,3.133,2.04c1.122,0.435,2.411,0.732,4.292,0.816
		c1.884,0.09,2.488,0.109,7.288,0.109s5.404-0.02,7.288-0.109c1.884-0.084,3.168-0.382,4.294-0.816
		c1.16-0.455,2.148-1.06,3.133-2.04c0.981-0.986,1.583-1.972,2.037-3.135c0.438-1.122,0.735-2.407,0.821-4.29
		c0.086-1.886,0.105-2.49,0.105-7.292c0-4.798-0.02-5.4-0.105-7.286s-0.384-3.167-0.821-4.294c-0.454-1.162-1.056-2.148-2.037-3.133
		c-0.984-0.978-1.973-1.586-3.133-2.037c-1.126-0.438-2.41-0.732-4.294-0.821C23.799,0.762,23.194,0.738,18.395,0.738L18.395,0.738z
		"/>
	<path fill="#FFFFFF" d="M18.395,9.345c-5.015,0-9.078,4.06-9.078,9.074c0,5.017,4.063,9.08,9.078,9.08s9.08-4.063,9.08-9.08
		C27.475,13.404,23.409,9.345,18.395,9.345z M18.395,24.314c-3.258,0-5.894-2.64-5.894-5.896c0-3.251,2.636-5.894,5.894-5.894
		c3.254,0,5.894,2.643,5.894,5.894C24.288,21.675,21.648,24.314,18.395,24.314z"/>
	<path fill="#FFFFFF" d="M29.953,8.982c0,1.172-0.949,2.123-2.122,2.123c-1.17,0-2.119-0.951-2.119-2.123s0.949-2.118,2.119-2.118
		C29.004,6.864,29.953,7.811,29.953,8.982z"/>
</g>
</svg>
