<?xml version="1.0" encoding="utf-8"?>
<!-- Generator: Adobe Illustrator 16.0.0, SVG Export Plug-In . SVG Version: 6.00 Build 0)  -->
<!DOCTYPE svg PUBLIC "-//W3C//DTD SVG 1.1//EN" "http://www.w3.org/Graphics/SVG/1.1/DTD/svg11.dtd">
<svg version="1.1" id="Layer_1" xmlns="http://www.w3.org/2000/svg" xmlns:xlink="http://www.w3.org/1999/xlink" x="0px" y="0px"
	 width="494px" height="273.393px" viewBox="0 0 494 273.393" enable-background="new 0 0 494 273.393" xml:space="preserve">
<g>
	
		<rect x="31.357" y="123.037" transform="matrix(-0.9886 0.1508 -0.1508 -0.9886 518.6923 325.2612)" fill="#004237" width="431.314" height="118.52"/>
	<g enable-background="new    ">
		<path fill="#FFFFFF" d="M124.87,201.178l2.405,15.765c-1.911,1.98-6.174,5.719-14.541,6.994
			c-12.464,1.901-22.762-5.671-24.525-17.225c-1.762-11.553,5.801-21.909,18.437-23.836c8.024-1.225,12.67,0.979,14.297,1.721
			l-2.517,6.791c-1.129-0.527-4.799-2.064-10.32-1.223c-7.911,1.207-12.974,7.338-11.759,15.305
			c1.215,7.969,8.195,12.494,15.765,11.34c3.017-0.46,5.425-1.468,7.165-2.664l-1.806-11.84L124.87,201.178z"/>
		<path fill="#FFFFFF" d="M131.478,179.613l7.854-1.198l6.103,40.01l-7.854,1.198L131.478,179.613z"/>
		<path fill="#FFFFFF" d="M184.691,171.495l-10.516,42.545l-5.065,0.772l-22.778-37.466l8.821-1.346l11.312,19.939l3.793,7.691
			l1.271-8.465l4.625-22.369L184.691,171.495z"/>
		<path fill="#FFFFFF" d="M224.401,199.333l1.051,6.885l-27.603,4.211l-6.103-40.01l27.432-4.185l1.059,6.943l-19.578,2.986
			l1.432,9.391l17.245-2.63l1.06,6.943l-17.245,2.63l1.501,9.847L224.401,199.333z"/>
		<path fill="#FFFFFF" d="M257.62,193.392l-17.131,2.612l-2.006,8.227l-8.31,1.268l11.426-42.684l5.179-0.79l23.518,37.354
			l-8.309,1.268L257.62,193.392z M241.978,188.964l12.122-1.85l-8.237-13.535L241.978,188.964z"/>
		<path fill="#FFFFFF" d="M318.544,151.077l-6.247,41.894l-5.919,0.903l-13.387-26.67l-4.541,29.404l-5.919,0.902l-18.396-38.134
			l8.31-1.268l6.01,13.817l5.628,13.992l2.01-14.691l2.572-15.592l5.236-0.799l7.16,14.107l6.501,13.219l1.617-14.981l1.568-14.915
			L318.544,151.077z"/>
		<path fill="#FFFFFF" d="M351.92,179.007l-17.131,2.613l-2.007,8.227l-8.31,1.268l11.427-42.684l5.179-0.791l23.519,37.354
			l-8.31,1.268L351.92,179.007z M336.277,174.579l12.122-1.849l-8.237-13.536L336.277,174.579z"/>
		<path fill="#FFFFFF" d="M382.933,166.24l2.378,15.594l-7.854,1.199l-2.379-15.594l-18.408-22.177l9.391-1.433l12.105,15.217
			l7.018-18.134l8.878-1.354L382.933,166.24z"/>
	</g>
	<rect y="0" fill="#004237" width="494" height="118.515"/>
	<g enable-background="new    ">
		<path fill="#FFFFFF" d="M62.272,48.304v12.608h16.984v7.023H62.272v13.817h-7.945V41.281h27.462v7.023H62.272z"/>
		<path fill="#FFFFFF" d="M113.276,81.753l-7.887-11.572h-0.979h-5.987v11.572h-7.945V41.281h14.45
			c9.845,0,16.408,5.584,16.408,14.623c0,5.757-2.937,10.133-7.945,12.493l9.27,13.356H113.276z M98.424,63.215h5.814
			c5.354,0,8.866-2.878,8.866-7.312c0-4.836-3.569-7.657-8.809-7.657h-5.872V63.215z"/>
		<path fill="#FFFFFF" d="M158.869,74.787v6.966h-27.922V41.281h27.749v7.023h-19.804v9.5h17.443v7.024h-17.443v9.96H158.869z"/>
		<path fill="#FFFFFF" d="M196.633,74.787v6.966h-27.922V41.281h27.749v7.023h-19.804v9.5H194.1v7.024h-17.443v9.96H196.633z"/>
		<path fill="#FFFFFF" d="M270.78,41.281l-12.493,40.473H252.3l-9.211-28.383l-8.924,28.383h-5.987l-12.436-40.473h8.405
			l3.857,14.565l3.454,14.681l4.203-14.22l4.894-15.026h5.296l4.951,15.026l4.434,14.047l3.857-14.565l3.8-14.508H270.78z"/>
		<path fill="#FFFFFF" d="M299.562,73.923h-17.329l-3.225,7.83h-8.405l17.732-40.473h5.238l17.617,40.473h-8.405L299.562,73.923z
			 M284.766,67.188h12.263l-6.103-14.623L284.766,67.188z"/>
		<path fill="#FFFFFF" d="M344.348,48.304h-13.414v33.449h-7.944V48.304h-13.473v-7.023h34.831V48.304z"/>
		<path fill="#FFFFFF" d="M348.029,61.545c0-11.744,8.578-20.783,21.531-20.783c7.082,0,11.515,2.533,13.357,3.915l-3.513,6.333
			c-0.921-0.691-4.145-2.821-9.384-2.821c-8.348,0-13.817,5.239-13.817,13.298c0,8.061,5.412,13.357,13.817,13.357
			c5.239,0,8.405-2.016,9.441-2.706l3.455,6.275c-1.843,1.382-6.103,3.857-13.357,3.857
			C356.55,82.272,348.029,73.233,348.029,61.545z"/>
		<path fill="#FFFFFF" d="M427.704,41.281v40.473h-7.944V65h-20.726v16.753h-7.945V41.281h7.945v16.696h20.726V41.281H427.704z"/>
	</g>
</g>
</svg>
