<?xml version="1.0" encoding="utf-8"?>
<!-- Generator: Adobe Illustrator 16.0.0, SVG Export Plug-In . SVG Version: 6.00 Build 0)  -->
<!DOCTYPE svg PUBLIC "-//W3C//DTD SVG 1.1//EN" "http://www.w3.org/Graphics/SVG/1.1/DTD/svg11.dtd">
<svg version="1.1" id="Layer_1" xmlns="http://www.w3.org/2000/svg" xmlns:xlink="http://www.w3.org/1999/xlink" x="0px" y="0px"
	 width="42.54px" height="40.952px" viewBox="0 0 42.54 40.952" enable-background="new 0 0 42.54 40.952" xml:space="preserve">
<g>
	<g>
		<g>
			<path fill="#333333" d="M38.317,26.011c-0.145-0.414-0.605-0.633-1.033-0.476l-6.615,2.441c-0.432,0.16-0.635,0.62-0.484,1.036
				c0.115,0.338,0.436,0.528,0.758,0.528c0.094,0,0.193-0.017,0.271-0.052l6.625-2.441C38.272,26.889,38.475,26.427,38.317,26.011z"
				/>
		</g>
	</g>
	<g>
		<g>
			<path fill="#333333" d="M38.317,29.278c-0.145-0.418-0.605-0.637-1.033-0.477l-6.615,2.441c-0.432,0.158-0.635,0.621-0.484,1.035
				c0.115,0.32,0.436,0.529,0.758,0.529c0.094,0,0.193-0.018,0.271-0.053l6.625-2.441C38.272,30.155,38.475,29.691,38.317,29.278z"
				/>
		</g>
	</g>
	<g>
		<g>
			<path fill="#333333" d="M38.317,22.771c-0.145-0.43-0.605-0.637-1.033-0.478l-6.615,2.442c-0.432,0.143-0.635,0.621-0.484,1.036
				c0.115,0.318,0.436,0.529,0.758,0.529c0.094,0,0.193-0.018,0.271-0.053l6.625-2.444C38.272,23.646,38.475,23.185,38.317,22.771z"
				/>
		</g>
	</g>
	<g>
		<g>
			<path fill="#333333" d="M41.069,8.019L21.635,0.845c-0.169-0.067-0.372-0.067-0.559,0L1.659,8.019V8.02
				C1.591,8.043,1.529,8.075,1.47,8.116C1.264,8.253,1.13,8.511,1.13,8.766v23.073c0,0.332,0.207,0.631,0.529,0.748l19.417,7.172
				c0.093,0.034,0.189,0.051,0.288,0.051c0.096,0,0.196-0.019,0.271-0.053v0.002l19.434-7.172c0.311-0.117,0.529-0.416,0.529-0.748
				V8.766C41.598,8.433,41.379,8.139,41.069,8.019z M20.565,37.849l-17.82-6.573V9.927l3.631,1.332v9.773
				c0,0.33,0.2,0.645,0.513,0.757l8.707,3.209c0.093,0.034,0.192,0.052,0.289,0.052c0.15,0,0.318-0.052,0.46-0.149
				c0.204-0.14,0.338-0.396,0.338-0.649v-9.176l3.883,1.426V37.849L20.565,37.849z M15.067,14.478v8.611l-7.093-2.621v-8.61
				L15.067,14.478z M9.497,10.687l6.388-2.346l6.37,2.346l-6.37,2.367L9.497,10.687z M21.364,15.082l-3.168-1.173l6.669-2.456
				c0.309-0.121,0.527-0.414,0.527-0.767c0-0.33-0.219-0.625-0.527-0.746l-8.71-3.218c-0.167-0.069-0.373-0.069-0.56,0L7.165,9.837
				L4.268,8.766l17.097-6.3l17.095,6.3L21.364,15.082z M39.981,31.275l-17.818,6.573V16.501l17.818-6.574V31.275z"/>
		</g>
	</g>
</g>
</svg>
