<?xml version="1.0" encoding="utf-8"?>
<!-- Generator: Adobe Illustrator 16.0.0, SVG Export Plug-In . SVG Version: 6.00 Build 0)  -->
<!DOCTYPE svg PUBLIC "-//W3C//DTD SVG 1.1//EN" "http://www.w3.org/Graphics/SVG/1.1/DTD/svg11.dtd">
<svg version="1.1" id="Layer_1" xmlns="http://www.w3.org/2000/svg" xmlns:xlink="http://www.w3.org/1999/xlink" x="0px" y="0px"
	 width="56.063px" height="37.786px" viewBox="0 0 56.063 37.786" enable-background="new 0 0 56.063 37.786" xml:space="preserve">
<g>
	<g>
		<g>
			<path fill="#333333" d="M51.196,16.178l-1.387-5.566c0.375-0.069,0.666-0.417,0.666-0.818V8.9c0-1.946-1.582-3.533-3.543-3.533
				h-6.334V3.513c0-0.967-0.781-1.739-1.74-1.739H6.539c-0.958,0-1.738,0.772-1.738,1.739v15.252c0,0.464,0.382,0.854,0.845,0.854
				s0.844-0.39,0.844-0.854V3.513c0-0.025,0.018-0.051,0.049-0.051h32.319c0.033,0,0.057,0.025,0.057,0.051v15.252
				c0,0.464,0.375,0.854,0.838,0.854c0.467,0,0.846-0.39,0.846-0.854v-0.952h9.92c0,0,0.002,0.001,0.004,0.001l0.002-0.001
				c1.227,0.001,2.266,0.813,2.617,1.913h-2.619c-0.463,0-0.836,0.381-0.836,0.844v1.788c0,1.451,1.188,2.64,2.641,2.64h0.951v3.708
				h-2.207c-0.713-2.09-2.695-3.592-5.037-3.592c-2.322,0-4.305,1.502-5.035,3.592h-0.402v-6.348c0-0.465-0.377-0.836-0.844-0.836
				c-0.463,0-0.838,0.371-0.838,0.836v6.348H21.457c-0.729-2.09-2.714-3.592-5.044-3.592c-2.324,0-4.315,1.502-5.036,3.592H6.539
				c-0.031,0-0.049-0.025-0.049-0.058v-1.846h3.641c0.464,0,0.844-0.39,0.844-0.853c0-0.464-0.38-0.836-0.844-0.836H2.054
				c-0.464,0-0.843,0.372-0.843,0.836c0,0.463,0.379,0.853,0.843,0.853h2.747v1.846c0,0.956,0.78,1.729,1.739,1.729h4.544
				c0,0.018-0.001,0.038-0.001,0.057c0,2.945,2.395,5.339,5.33,5.339c2.943,0,5.329-2.394,5.329-5.339
				c0-0.019-0.001-0.039-0.001-0.057h18.975c0,0.018-0.002,0.038-0.002,0.057c0,2.945,2.387,5.339,5.32,5.339
				c2.938,0,5.342-2.394,5.342-5.339c0-0.019-0.002-0.039-0.002-0.057h2.74c0.463,0,0.854-0.373,0.854-0.836V20.57
				C54.967,18.347,53.327,16.511,51.196,16.178z M40.598,7.042h6.334c1.018,0,1.859,0.837,1.859,1.857v0.059h-8.193V7.042z
				 M40.598,16.133v-5.502h7.475l1.387,5.502H40.598z M16.413,34.085c-2.011,0-3.642-1.64-3.642-3.651
				c0-2.01,1.631-3.632,3.642-3.632c2.015,0,3.65,1.622,3.65,3.632C20.063,32.446,18.428,34.085,16.413,34.085z M46.034,34.085
				c-2.01,0-3.641-1.64-3.641-3.651c0-2.01,1.631-3.632,3.641-3.632c2.012,0,3.652,1.622,3.652,3.632
				C49.686,32.446,48.045,34.085,46.034,34.085z M53.278,23.31h-0.951c-0.527,0-0.951-0.426-0.951-0.952v-0.953h1.902V23.31
				L53.278,23.31z"/>
		</g>
	</g>
	<g>
		<g>
			<path fill="#333333" d="M16.413,28.706c-0.958,0-1.738,0.771-1.738,1.729c0,0.958,0.78,1.748,1.738,1.748
				c0.966,0,1.742-0.79,1.742-1.748C18.155,29.477,17.379,28.706,16.413,28.706z"/>
		</g>
	</g>
	<g>
		<g>
			<path fill="#333333" d="M46.034,28.706c-0.957,0-1.738,0.771-1.738,1.729c0,0.958,0.781,1.748,1.738,1.748
				c0.961,0,1.75-0.79,1.75-1.748C47.784,29.477,46.995,28.706,46.034,28.706z"/>
		</g>
	</g>
	<g>
		<g>
			<path fill="#333333" d="M36.167,25.115H23.598c-0.466,0-0.846,0.372-0.846,0.835s0.38,0.853,0.846,0.853h12.568
				c0.465,0,0.838-0.39,0.838-0.853S36.631,25.115,36.167,25.115z"/>
		</g>
	</g>
	<g>
		<g>
			<path fill="#333333" d="M14.617,21.522H3.848c-0.462,0-0.843,0.371-0.843,0.836c0,0.463,0.381,0.853,0.843,0.853h10.769
				c0.472,0,0.844-0.39,0.844-0.853C15.461,21.893,15.089,21.522,14.617,21.522z"/>
		</g>
	</g>
	<g>
		<g>
			<path fill="#333333" d="M30.477,10.089c-0.332-0.322-0.865-0.322-1.189,0l-7.486,7.497l-3.888-3.904
				c-0.331-0.323-0.866-0.323-1.198,0c-0.321,0.34-0.321,0.873,0,1.195l4.487,4.485c0.17,0.171,0.385,0.256,0.599,0.256
				s0.427-0.085,0.597-0.256l8.079-8.078C30.807,10.963,30.807,10.43,30.477,10.089z"/>
		</g>
	</g>
</g>
</svg>
