<?xml version="1.0" encoding="utf-8"?>
<!-- Generator: Adobe Illustrator 16.0.0, SVG Export Plug-In . SVG Version: 6.00 Build 0)  -->
<!DOCTYPE svg PUBLIC "-//W3C//DTD SVG 1.1//EN" "http://www.w3.org/Graphics/SVG/1.1/DTD/svg11.dtd">
<svg version="1.1" id="Layer_1" xmlns="http://www.w3.org/2000/svg" xmlns:xlink="http://www.w3.org/1999/xlink" x="0px" y="0px"
	 width="37.874px" height="30.449px" viewBox="0 0 37.874 30.449" enable-background="new 0 0 37.874 30.449" xml:space="preserve">
<path fill="#FFFFFF" d="M37.257,4.082c-1.326,0.588-2.751,0.985-4.25,1.164c1.529-0.915,2.702-2.365,3.254-4.094
	c-1.429,0.848-3.014,1.465-4.7,1.795c-1.349-1.437-3.272-2.336-5.402-2.336c-4.086,0-7.399,3.313-7.399,7.401
	c0,0.579,0.065,1.144,0.191,1.685C12.798,9.39,7.346,6.443,3.697,1.966C3.059,3.059,2.693,4.329,2.693,5.688
	c0,2.566,1.307,4.83,3.292,6.16c-1.213-0.04-2.354-0.372-3.352-0.927c-0.002,0.03-0.002,0.062-0.002,0.094
	c0,3.584,2.554,6.577,5.938,7.256c-0.621,0.169-1.275,0.261-1.948,0.261c-0.479,0-0.94-0.048-1.394-0.134
	c0.94,2.94,3.676,5.08,6.912,5.14c-2.532,1.983-5.723,3.169-9.189,3.169c-0.597,0-1.188-0.036-1.765-0.105
	c3.275,2.101,7.164,3.327,11.344,3.327c13.613,0,21.056-11.279,21.056-21.058c0-0.32-0.006-0.639-0.021-0.958
	C35.01,6.869,36.265,5.564,37.257,4.082z"/>
</svg>
